#define 1681138870150_width 128
#define 1681138870150_height 64
static char 1681138870150_bits[] = {
  0xFF, 0xFF, 0xFF, 0xFF, 0xFF, 0xFF, 0xFF, 0xFF, 0xFF, 0xFF, 0xFF, 0xFF, 
  0xFF, 0xFF, 0xDF, 0xDF, 0x7F, 0xFF, 0xFF, 0xFF, 0xFF, 0xFF, 0xFF, 0xFF, 
  0xFF, 0xFF, 0xFF, 0xFF, 0x7F, 0xFF, 0xFF, 0xFF, 0xFF, 0xFF, 0xFF, 0xFF, 
  0xFF, 0xFF, 0xFF, 0xEF, 0xFF, 0xFF, 0xFF, 0xFF, 0xFF, 0xFF, 0xFF, 0xFD, 
  0xF7, 0xFF, 0xFF, 0xBF, 0xFF, 0xFF, 0xFF, 0xFF, 0xFF, 0xFF, 0xFF, 0xFF, 
  0xFF, 0xFF, 0xFF, 0xEF, 0xFF, 0xFF, 0xFF, 0xFF, 0xFF, 0xFF, 0xFF, 0xFF, 
  0xFF, 0xFF, 0xFF, 0xFF, 0xFF, 0xFF, 0xFF, 0xFF, 0xFF, 0xFF, 0xFF, 0xFF, 
  0xFF, 0xFF, 0xFF, 0xFF, 0xFF, 0xFF, 0xFF, 0xFF, 0xFF, 0xFF, 0xFF, 0xFB, 
  0xFF, 0xFF, 0xFF, 0xFF, 0xFF, 0xFF, 0xFF, 0xFF, 0xFF, 0xFF, 0xFF, 0xFF, 
  0xFF, 0xFF, 0xFF, 0xFF, 0xFF, 0xFF, 0xFF, 0xFF, 0xFF, 0xFF, 0xFF, 0xFF, 
  0xFF, 0xFF, 0xFF, 0xFF, 0xFF, 0xFF, 0xFF, 0xBF, 0xF7, 0xFF, 0xFF, 0xFF, 
  0xFF, 0xFF, 0xFF, 0xFF, 0xFF, 0xFF, 0xFF, 0xFF, 0xFF, 0xFF, 0xFF, 0xF7, 
  0xFF, 0xFF, 0xFF, 0xFF, 0xFF, 0xFF, 0xFF, 0xFF, 0xFF, 0xFF, 0xFF, 0xFF, 
  0xFF, 0xFF, 0xDF, 0xFE, 0xFF, 0xFF, 0xFF, 0xFF, 0xFF, 0xFF, 0x7F, 0xBF, 
  0xFF, 0xFF, 0xFF, 0xFF, 0xFF, 0xFF, 0xFF, 0xFF, 0xEF, 0xFF, 0xFF, 0xFF, 
  0xFF, 0xFF, 0xFF, 0xFF, 0xFF, 0xFF, 0xFF, 0xFF, 0xFF, 0xFF, 0xFF, 0xBF, 
  0xFD, 0x7F, 0x7F, 0xFF, 0xFF, 0xDF, 0xFF, 0xFF, 0xBF, 0xFF, 0xFF, 0xFF, 
  0xBF, 0x7F, 0xBF, 0xFF, 0xFB, 0xDF, 0xFF, 0xFB, 0xFF, 0xFB, 0xFF, 0xFF, 
  0xFF, 0xF7, 0xFD, 0xFF, 0xDF, 0xEF, 0xFF, 0xBF, 0xFF, 0xFF, 0xFF, 0xFF, 
  0xFF, 0xFF, 0xFF, 0xFF, 0xFF, 0xFF, 0xFF, 0xFF, 0xFF, 0xFF, 0xFF, 0xF7, 
  0xBF, 0xFF, 0xBF, 0xFF, 0xFF, 0xFE, 0xEF, 0xD7, 0x7F, 0xFF, 0xFF, 0x7F, 
  0xFF, 0xFF, 0xFF, 0xFE, 0x7F, 0xD7, 0xFF, 0xEF, 0xFF, 0x7F, 0xFF, 0xFF, 
  0xDF, 0xFB, 0xFF, 0x7F, 0xFD, 0xFF, 0xFF, 0xFB, 0xFF, 0xFF, 0xDB, 0xFF, 
  0x03, 0xFF, 0xBF, 0xEB, 0xFF, 0xFF, 0xEF, 0xC0, 0x7D, 0xD7, 0xF7, 0xFD, 
  0xFD, 0xFF, 0xFF, 0xFE, 0x83, 0xFF, 0xF7, 0xFF, 0xFD, 0xFF, 0xFF, 0x40, 
  0xFD, 0xFF, 0xEF, 0xFF, 0xFB, 0xFF, 0xFF, 0xFF, 0x03, 0xBF, 0xFE, 0xFF, 
  0xEF, 0xB7, 0xFE, 0x40, 0xF7, 0xFF, 0xFF, 0x7F, 0xFF, 0xFF, 0xF7, 0xFF, 
  0x83, 0xFF, 0xDF, 0x7D, 0xFF, 0xFF, 0xFF, 0xC0, 0xFD, 0xBE, 0xFB, 0xFF, 
  0xEF, 0xBE, 0xFE, 0xFF, 0x03, 0xFF, 0xFF, 0xFF, 0xFB, 0xDF, 0xFF, 0x40, 
  0xDD, 0xFF, 0xFD, 0x7F, 0xF7, 0x7D, 0x7F, 0xFF, 0x87, 0xFF, 0xFF, 0xFF, 
  0xFF, 0xFF, 0xFF, 0xC5, 0xFD, 0xFF, 0xFF, 0xFB, 0xFF, 0xFF, 0xFF, 0xFE, 
  0xFE, 0xFF, 0xFB, 0xBE, 0xBF, 0xFD, 0xFF, 0x3F, 0xFD, 0xFD, 0x7F, 0xFD, 
  0xFF, 0xFF, 0xFF, 0xFF, 0x00, 0xFE, 0xDF, 0xFE, 0xFD, 0xBE, 0x7F, 0x00, 
  0xBF, 0x7F, 0xFF, 0xFF, 0xEF, 0xFD, 0x7F, 0xF7, 0xFF, 0xFD, 0xFF, 0xFF, 
  0xFF, 0xFF, 0xF7, 0xFF, 0xFF, 0xEF, 0xFE, 0x7F, 0xDF, 0xEF, 0xFE, 0xBF, 
  0xFB, 0xEF, 0xFD, 0xDF, 0xFF, 0xFF, 0xEF, 0xF6, 0xFB, 0xFD, 0x7F, 0xFF, 
  0xFE, 0xFF, 0xF7, 0xFF, 0xEF, 0x7F, 0xFF, 0xFF, 0xDF, 0x7D, 0xFF, 0xBF, 
  0xFF, 0xFF, 0xEF, 0xF7, 0xFB, 0xFB, 0xFF, 0xBF, 0xEF, 0xFF, 0xEF, 0xBF, 
  0xFE, 0xFF, 0xFB, 0xFF, 0xEF, 0xFD, 0xFF, 0xDF, 0xFF, 0x7F, 0xDF, 0xFF, 
  0xFF, 0xFD, 0xFD, 0xF7, 0xF7, 0xFF, 0xFD, 0xFF, 0xFD, 0xFF, 0xFB, 0xFE, 
  0xFF, 0xFF, 0xFB, 0xFE, 0xFE, 0xFE, 0xFF, 0xFB, 0xBF, 0xEB, 0xFF, 0xD7, 
  0xFF, 0x7F, 0xDF, 0xFF, 0x7F, 0xF7, 0xFF, 0xF7, 0xFF, 0xDF, 0xDF, 0xFF, 
  0xFF, 0xFF, 0x7F, 0xFF, 0xDF, 0xEF, 0xFF, 0xEF, 0xFF, 0xFF, 0xFF, 0xFF, 
  0xFF, 0xFF, 0xBF, 0xEF, 0xFF, 0xFF, 0xBF, 0xEB, 0xFF, 0xFE, 0xFF, 0xFF, 
  0x7D, 0x7F, 0xFE, 0xBE, 0xEF, 0xDF, 0xDF, 0xFF, 0xFE, 0xBF, 0xFF, 0xFF, 
  0xEF, 0xFF, 0x7D, 0x7F, 0xBE, 0xFF, 0xFF, 0x7D, 0xF7, 0xEF, 0xFE, 0xFF, 
  0x7F, 0xF7, 0xFB, 0xFF, 0xDE, 0xFF, 0xBE, 0xFF, 0xFF, 0xF7, 0xEF, 0xFF, 
  0xFF, 0xFD, 0xFF, 0xF7, 0xEF, 0xFE, 0xFD, 0xFF, 0xFF, 0xDF, 0xFF, 0xF7, 
  0xFF, 0xFE, 0xFF, 0xFF, 0xDF, 0xFB, 0xFE, 0xBF, 0xFF, 0xDF, 0xEF, 0xFF, 
  0xF7, 0xBF, 0xFF, 0xFF, 0xFF, 0xDF, 0x7B, 0xFF, 0xBF, 0xFF, 0xFF, 0xDF, 
  0xFF, 0xFF, 0xFF, 0xBD, 0xFF, 0xF7, 0xFF, 0xDE, 0xFF, 0xEF, 0xFF, 0xFF, 
  0xFF, 0xFF, 0xFF, 0xFF, 0xDB, 0xFF, 0xFF, 0x7E, 0x7F, 0xFB, 0xFF, 0xFF, 
  0xD7, 0xFF, 0xF7, 0xEB, 0xFE, 0x7F, 0x9F, 0xFD, 0xFF, 0xFB, 0xF7, 0xFF, 
  0xFF, 0xFF, 0xD7, 0xEF, 0xFF, 0xFF, 0xFB, 0xFF, 0xBF, 0xFB, 0xFF, 0x7F, 
  0xEF, 0x7F, 0xFF, 0xFF, 0xFF, 0xEF, 0xFF, 0xDF, 0xEB, 0xDF, 0xFF, 0xD7, 
  0xFF, 0xFD, 0xFE, 0xFF, 0xFF, 0xEF, 0xDF, 0xFE, 0xBE, 0xFF, 0xEB, 0xFF, 
  0xFF, 0xFF, 0xBF, 0xFF, 0xFB, 0xFF, 0xFF, 0xFD, 0xFE, 0xFD, 0xEF, 0xFF, 
  0x7D, 0xF7, 0xFF, 0xFD, 0xFF, 0xED, 0xF7, 0xFF, 0xFD, 0x7F, 0xEF, 0xFB, 
  0xDF, 0xFF, 0xFD, 0xEF, 0xFF, 0xFF, 0xFF, 0xEF, 0x7D, 0xFF, 0xFF, 0xBE, 
  0xEF, 0xFF, 0x7F, 0xFF, 0xFF, 0xFD, 0xFB, 0xFF, 0xFF, 0xDF, 0x7D, 0xFF, 
  0xFF, 0xFB, 0xDF, 0xFF, 0xFF, 0x7F, 0xFB, 0xFF, 0xF7, 0xFF, 0xFF, 0xFB, 
  0xFF, 0xBF, 0xFF, 0xFB, 0xFF, 0xFF, 0xFF, 0xFF, 0xFF, 0xFB, 0xF7, 0xF7, 
  0xBF, 0xBF, 0xFF, 0xF7, 0xFF, 0xFF, 0xFF, 0xFF, 0xBE, 0xBF, 0xFD, 0x7D, 
  0xFB, 0xFD, 0xFF, 0xFF, 0xFF, 0xEF, 0x7F, 0xFF, 0xEB, 0xFE, 0xBE, 0xBF, 
  0xFF, 0xDF, 0x7F, 0xFF, 0xFF, 0xFF, 0xFF, 0xFF, 0xFE, 0xFF, 0xFF, 0xFF, 
  0xEB, 0xFD, 0xBF, 0xBF, 0xBF, 0xBF, 0xFF, 0xDF, 0xFF, 0xFF, 0xFF, 0xFF, 
  0xFF, 0xFF, 0xFF, 0xFF, 0xFF, 0xFF, 0xFF, 0xFF, 0xF7, 0xFF, 0xFF, 0xFE, 
  0xFF, 0xFF, 0xFF, 0xFF, 0xFF, 0xFF, 0xFF, 0xFF, 0xFF, 0xDF, 0xFF, 0xFB, 
  0xFF, 0xFD, 0xFB, 0xFF, 0xFF, 0xFF, 0xFF, 0xFF, 0xFF, 0xFF, 0xFF, 0xFF, 
  0xFF, 0xBF, 0x7B, 0xFF, 0xDF, 0xFF, 0xFD, 0xFF, 0xFF, 0xFF, 0xFF, 0xFF, 
  0xFF, 0xFF, 0xFF, 0xFF, 0xFF, 0xFF, 0xFF, 0xEF, 0xFE, 0xFD, 0xEF, 0xFF, 
  0xFF, 0xFF, 0xFF, 0xFF, 0xFF, 0xFF, 0xFF, 0xFF, 0x7F, 0xF7, 0xFF, 0xFD, 
  0xFF, 0xEF, 0xDF, 0xFF, 0x01, 0x00, 0x00, 0x00, 0x00, 0x00, 0x00, 0x00, 
  0xBF, 0xFF, 0xEB, 0xFF, 0xEF, 0x7F, 0xFF, 0xFF, 0x00, 0x00, 0x00, 0x00, 
  0x00, 0x00, 0x00, 0x00, 0xFF, 0xEF, 0xFF, 0xDF, 0xFF, 0xFB, 0xF7, 0xEF, 
  0xFF, 0xFF, 0xFE, 0xFF, 0xFF, 0xFE, 0xFF, 0xFF, 0xFF, 0xFF, 0xD7, 0xEF, 
  0xDF, 0xFF, 0xFF, 0xFE, 0xFF, 0xFF, 0xFF, 0xFF, 0xFF, 0xFF, 0xFF, 0xFF, 
  0xFF, 0xFB, 0xFF, 0xFF, 0xFB, 0xFF, 0xFF, 0xFD, 0xFF, 0xFF, 0xFF, 0xFF, 
  0xFF, 0xFF, 0xFF, 0xFF, 0xFF, 0xF7, 0xFF, 0xFE, 0xFF, 0xDF, 0xEF, 0xFF, 
  0xFF, 0xFF, 0xFF, 0xFF, 0xFF, 0xFF, 0xFF, 0xFF, 0xFF, 0xBF, 0xFF, 0xDF, 
  0xEF, 0xFE, 0xFD, 0xFF, 0xFF, 0xFF, 0xFF, 0xFF, 0xFF, 0xFD, 0xDF, 0xFF, 
  0xFE, 0xDF, 0xFF, 0xFF, 0x7F, 0xF7, 0xFB, 0xFF, 0xFF, 0xFF, 0xFF, 0xFF, 
  0xFF, 0xFF, 0xFF, 0xFF, 0xDF, 0xFF, 0xBE, 0xF7, 0xFE, 0xBF, 0xFF, 0xFF, 
  0xFF, 0xFF, 0xFF, 0xFF, 0xFF, 0xFF, 0xFF, 0xEF, 0xEF, 0xFF, 0xFD, 0xBF, 
  0xFF, 0xFF, 0xBF, 0xDB, 0xBF, 0xBF, 0xBF, 0xBF, 0xEF, 0xFF, 0xFE, 0xFF, 
  0xFF, 0xFE, 0x7F, 0xFF, };
