#define 1681140146060_width 128
#define 1681140146060_height 64
static char 1681140146060_bits[] = {
  0xDF, 0xFF, 0xFF, 0x7F, 0xFF, 0xFF, 0xFF, 0xF7, 0xFB, 0xFF, 0xFF, 0xFF, 
  0xEF, 0xFF, 0xFF, 0x7E, 0xFF, 0xFF, 0xFF, 0xFF, 0xFF, 0xFF, 0xFF, 0xFF, 
  0xFF, 0x7F, 0xFF, 0xFF, 0xFF, 0xFF, 0xFF, 0xFF, 0xFB, 0xFF, 0xFF, 0xFF, 
  0xFF, 0xFF, 0xFF, 0xFF, 0xFF, 0xFF, 0xFF, 0xFF, 0xFF, 0xFF, 0xE7, 0xFF, 
  0xFF, 0xFF, 0xFF, 0xFF, 0xFF, 0xFD, 0xBF, 0xFF, 0xFF, 0xFF, 0xFF, 0xFF, 
  0x7F, 0xFF, 0xFF, 0xE7, 0xFF, 0xFF, 0xFF, 0xFF, 0xFF, 0xFF, 0xFF, 0xFF, 
  0xFF, 0xFF, 0xFF, 0xFF, 0xFF, 0xFF, 0xFF, 0xFF, 0xFF, 0xFF, 0xFF, 0xFF, 
  0xFF, 0xFF, 0xFF, 0xFF, 0xFF, 0xFF, 0xFF, 0xFF, 0xFF, 0xFF, 0xFF, 0xF7, 
  0xFF, 0xFF, 0xFF, 0xFF, 0xFF, 0xFF, 0xFF, 0xFF, 0xFF, 0xFF, 0xFF, 0xFF, 
  0xFF, 0xFF, 0xFF, 0x7F, 0xFF, 0xFF, 0xFF, 0xFF, 0xFF, 0xFF, 0xFF, 0xFF, 
  0xFF, 0xFF, 0xFF, 0xFF, 0xFF, 0xFF, 0xFF, 0xFD, 0xFE, 0xFF, 0xFF, 0xFF, 
  0xFF, 0xFF, 0xFF, 0xFF, 0xFF, 0xFF, 0xFF, 0xFF, 0xFF, 0xFF, 0xFF, 0xDF, 
  0x7F, 0xFF, 0xFF, 0xFF, 0xFF, 0xFF, 0xFF, 0xFF, 0xFF, 0xFF, 0xFF, 0xFF, 
  0xFF, 0xFF, 0xEF, 0xFF, 0xFF, 0xBF, 0xFF, 0xFF, 0xFF, 0xFF, 0xFF, 0xEF, 
  0xFF, 0xFF, 0xFF, 0xFF, 0x7F, 0xBF, 0xFF, 0xDB, 0xB7, 0xFF, 0x7F, 0xFF, 
  0xFF, 0xBF, 0xFF, 0xFF, 0xFF, 0xFF, 0xF7, 0xFF, 0xFF, 0xFF, 0x7F, 0xFF, 
  0xF7, 0xFB, 0xFF, 0xFF, 0xFF, 0xFF, 0xEF, 0xF7, 0xFF, 0xFD, 0xFF, 0xFF, 
  0xFF, 0xFB, 0xFF, 0xFF, 0xFF, 0xFF, 0xFF, 0xFF, 0xFF, 0xF7, 0xFF, 0xFF, 
  0xBF, 0xFF, 0xFF, 0xFF, 0xFB, 0xFF, 0xFF, 0xBF, 0xFE, 0xBF, 0xEF, 0xFA, 
  0xFF, 0xDF, 0xFF, 0xFF, 0xFF, 0xEF, 0xFE, 0xFF, 0xDF, 0xBF, 0xEF, 0xFE, 
  0xBF, 0xFF, 0xFF, 0xFF, 0xFF, 0xFF, 0x7F, 0x7E, 0xBF, 0xFF, 0xFF, 0xFF, 
  0xFF, 0xFF, 0xFF, 0xFB, 0xBF, 0xDF, 0xFF, 0xFE, 0xFF, 0xBF, 0xFF, 0xEF, 
  0xFF, 0xF7, 0xFB, 0xFF, 0xFF, 0x7E, 0x7F, 0xDF, 0xFE, 0xFF, 0xFD, 0xFF, 
  0xFF, 0xFF, 0xDF, 0xF7, 0xB5, 0xFF, 0xFF, 0xFF, 0xFF, 0xFF, 0xFE, 0xFF, 
  0xFF, 0xF5, 0xED, 0xFF, 0xFF, 0xBF, 0xFA, 0xFF, 0xFF, 0xFF, 0xFE, 0xFF, 
  0x5F, 0xFF, 0xFF, 0xEF, 0xFB, 0xFF, 0xFF, 0xF7, 0xFF, 0xFF, 0xFF, 0x7E, 
  0xFF, 0x7E, 0xFF, 0xFF, 0xFF, 0xEF, 0xDB, 0xFB, 0xB7, 0xFF, 0xDF, 0xFF, 
  0xFF, 0xFF, 0xFF, 0xFF, 0xFB, 0xBD, 0xFF, 0xFF, 0xFF, 0xDB, 0xEF, 0xFF, 
  0xFF, 0x7F, 0xFF, 0xFF, 0xFF, 0xFF, 0xBB, 0xFF, 0xEF, 0xFF, 0xFF, 0xFF, 
  0xEF, 0xFF, 0xFF, 0xFF, 0xBF, 0xFB, 0x7D, 0xFF, 0xFF, 0xFF, 0xFF, 0xF7, 
  0xFF, 0xFF, 0xFF, 0xFF, 0xFF, 0xFE, 0xFF, 0xBA, 0xFF, 0xDF, 0xFF, 0xFF, 
  0xFF, 0xFF, 0xBF, 0xEF, 0xBF, 0xF7, 0xFF, 0xFF, 0xFF, 0x7F, 0x7E, 0xFF, 
  0xBE, 0xF7, 0xFF, 0x7E, 0xFF, 0xFF, 0xFD, 0xDF, 0xFE, 0xBF, 0xFD, 0xFF, 
  0xFF, 0xFB, 0xDF, 0xFF, 0xFF, 0xFF, 0xFB, 0xFF, 0xFF, 0x7D, 0x7F, 0xFF, 
  0x7F, 0xFF, 0xFF, 0xFF, 0xDF, 0xFF, 0xF7, 0xEF, 0xFF, 0xFF, 0x9F, 0xFF, 
  0xFF, 0xFF, 0xF7, 0x7E, 0xFF, 0x7B, 0xDE, 0x7F, 0xFF, 0xFB, 0xFF, 0xFD, 
  0xE7, 0x7E, 0xFF, 0xE7, 0xFD, 0xDF, 0xFF, 0xFF, 0xD7, 0xFF, 0xFF, 0xFF, 
  0xDF, 0xDF, 0xFD, 0xBF, 0xFF, 0xBD, 0xFF, 0xFF, 0x7F, 0xFF, 0xE7, 0xFB, 
  0xF7, 0xFF, 0xFF, 0xFF, 0xFF, 0xFF, 0x7F, 0xFE, 0xFF, 0xFF, 0xDE, 0xF7, 
  0xFE, 0xEF, 0xFF, 0xBF, 0xFF, 0xFA, 0x9F, 0xFB, 0x7E, 0xFF, 0xFF, 0x7F, 
  0x77, 0xFF, 0xFF, 0x7F, 0xFF, 0xFF, 0xFF, 0xFB, 0xFF, 0xDF, 0xFB, 0xDF, 
  0xFF, 0x5D, 0xFB, 0xFF, 0xFD, 0xF7, 0xFD, 0xFD, 0xEF, 0xF7, 0x7E, 0xFF, 
  0xBE, 0xFF, 0xFF, 0xFF, 0xFB, 0xFF, 0xEF, 0xF7, 0xBF, 0xEF, 0xF7, 0xFB, 
  0xFF, 0xBE, 0x7D, 0xFF, 0xFD, 0xBF, 0xFF, 0xFD, 0xEF, 0xFF, 0xDF, 0xF7, 
  0xFF, 0xFF, 0xFF, 0xDF, 0xFD, 0xFF, 0xFF, 0xBF, 0x7F, 0xFE, 0xFB, 0x7F, 
  0xFF, 0x9D, 0xFB, 0xFF, 0x7B, 0xFF, 0xFF, 0xFE, 0xFF, 0xFF, 0xFF, 0xF7, 
  0xFF, 0xFF, 0x9F, 0xFF, 0xFF, 0xFF, 0xFF, 0xFF, 0xFF, 0x7D, 0x7E, 0xFF, 
  0xED, 0xE7, 0xE7, 0xBF, 0xDF, 0xFB, 0xFF, 0xEF, 0x7E, 0xFF, 0x7F, 0x7E, 
  0xFF, 0x7D, 0xBD, 0xFF, 0xDF, 0xFF, 0xFF, 0xFB, 0xED, 0xB7, 0xFF, 0xED, 
  0xBD, 0xDF, 0xFD, 0xBD, 0xF9, 0xFF, 0xFF, 0xAF, 0xFF, 0xFF, 0xFF, 0xFF, 
  0xFF, 0xFF, 0xDE, 0xFF, 0xFF, 0xF7, 0xF7, 0xFF, 0xDF, 0xFF, 0xFF, 0xFF, 
  0x7F, 0x77, 0xEE, 0xBE, 0xFD, 0xBF, 0xFF, 0xFE, 0xEF, 0xFF, 0xFF, 0xEF, 
  0xFF, 0xEF, 0xF7, 0xFB, 0xFD, 0xFD, 0xBF, 0xFF, 0x7F, 0xFF, 0xFD, 0x7F, 
  0xFF, 0xFB, 0xDF, 0xFF, 0xBF, 0xFB, 0xDF, 0x7D, 0xE7, 0xFF, 0xFF, 0xEF, 
  0xFF, 0xFF, 0xEF, 0xFD, 0xFD, 0x7F, 0x7E, 0xFF, 0xFE, 0xFF, 0x7F, 0xFF, 
  0xFF, 0xDF, 0xFB, 0xF7, 0xDF, 0xFB, 0xFF, 0xFF, 0xFF, 0xFE, 0xFF, 0xBA, 
  0xFF, 0xBE, 0xFD, 0xFF, 0xFF, 0xDB, 0xDB, 0xFF, 0xFB, 0xDF, 0xFF, 0xF7, 
  0xDD, 0xFF, 0xFF, 0xFF, 0xFB, 0xFF, 0xFF, 0xEF, 0x7E, 0xFF, 0xFF, 0x7E, 
  0xDF, 0xFB, 0x7D, 0xEF, 0xFF, 0xEB, 0xF7, 0xFF, 0xB7, 0xDF, 0xFF, 0xEB, 
  0xFF, 0xFF, 0xFF, 0xFF, 0xFF, 0xFF, 0x7D, 0xFF, 0xFF, 0xEF, 0xDB, 0xFB, 
  0xFF, 0xFB, 0xDB, 0xFF, 0xFF, 0xBF, 0xFD, 0xFF, 0xBE, 0x7D, 0xFF, 0xFF, 
  0x5F, 0xFF, 0xFF, 0xDF, 0xBF, 0xDF, 0xFB, 0xFE, 0xE7, 0xFE, 0x7F, 0xF7, 
  0xFF, 0xFF, 0xFF, 0xEE, 0xFB, 0xFF, 0x7F, 0xFF, 0xFF, 0xFF, 0xFF, 0x7F, 
  0xFF, 0xFB, 0xDF, 0xFF, 0xFB, 0xDF, 0xEF, 0xFF, 0xFF, 0x7D, 0xFE, 0xDF, 
  0xBE, 0xFF, 0xFD, 0xFE, 0xFF, 0xFF, 0xFF, 0xFF, 0xFF, 0xFF, 0xFF, 0xFF, 
  0xFB, 0xFF, 0xFF, 0xFF, 0xFF, 0xFB, 0x77, 0xFF, 0xFF, 0xFF, 0xFF, 0xFF, 
  0xF7, 0xFF, 0xFF, 0xFF, 0xEF, 0xFD, 0xBF, 0xEF, 0xEF, 0xDB, 0xFF, 0xEF, 
  0xFF, 0xFF, 0xFF, 0xFF, 0xFF, 0xFF, 0xFF, 0xFF, 0xFF, 0x5F, 0xB7, 0xFD, 
  0xF7, 0xFF, 0xFF, 0xFF, 0xFF, 0xFF, 0xFF, 0xFF, 0xFF, 0xFF, 0xFF, 0xFF, 
  0xBF, 0xFF, 0xFF, 0xBF, 0xFF, 0xFF, 0xE7, 0xF7, 0xFF, 0xFF, 0xFF, 0xFF, 
  0xFF, 0xFF, 0xFF, 0xFF, 0xFF, 0xFF, 0xFB, 0xFE, 0xFF, 0x7D, 0xFF, 0xFF, 
  0xFF, 0xFF, 0xFF, 0xFF, 0xFF, 0xFF, 0xFF, 0xFF, 0xFF, 0xED, 0xFE, 0x7F, 
  0x75, 0xFF, 0xFF, 0xFF, 0x01, 0x00, 0x00, 0x00, 0x00, 0x00, 0x00, 0x00, 
  0xDF, 0xFF, 0xBF, 0xFF, 0xFF, 0xDF, 0xBE, 0xFF, 0x00, 0x00, 0x00, 0x00, 
  0x00, 0x00, 0x00, 0x00, 0xFF, 0xFD, 0xFF, 0xF7, 0xDF, 0xFF, 0xFF, 0xFF, 
  0xFF, 0xFF, 0xFE, 0xFF, 0xFF, 0xFE, 0xFF, 0xFF, 0xFF, 0xBE, 0xFF, 0xF7, 
  0xFF, 0xE7, 0xBF, 0xDF, 0xFF, 0xFF, 0xFF, 0xFF, 0xFF, 0xFF, 0xFF, 0xFF, 
  0xFF, 0xFF, 0xBF, 0xFF, 0x7B, 0xFF, 0xFF, 0xFB, 0xFF, 0xFF, 0xFF, 0xFF, 
  0xFF, 0xFF, 0xFF, 0xFF, 0xDF, 0xEF, 0xFA, 0x7F, 0xFF, 0xFF, 0xB7, 0xFF, 
  0xFF, 0xFF, 0xFF, 0xFF, 0xFF, 0xFF, 0xFF, 0xFF, 0xFF, 0xFF, 0xFF, 0xFE, 
  0xFF, 0x7E, 0xFB, 0xFF, 0x7F, 0x7F, 0x7F, 0x7F, 0xFF, 0xFF, 0xFF, 0xFF, 
  0xFF, 0xF7, 0xFF, 0xBF, 0xF5, 0xFF, 0xFF, 0xF5, 0xFF, 0xFF, 0xFF, 0xFF, 
  0xEF, 0xF7, 0x7E, 0xFF, 0xBF, 0xEF, 0xB7, 0xFD, 0xDF, 0xFF, 0xFE, 0xFF, 
  0xEF, 0xEF, 0xEF, 0xEF, 0xFF, 0xFF, 0xFF, 0xEF, 0xFA, 0xFF, 0xFF, 0xEF, 
  0xFF, 0xE7, 0xBF, 0xDF, 0xFF, 0xFF, 0xFF, 0xFF, 0xFF, 0xFE, 0xDF, 0xFF, 
  0xFF, 0xBE, 0xBF, 0xFF, };
